<svg xmlns="http://www.w3.org/2000/svg" width="430" height="120" viewBox="0 0 430 120"><defs><linearGradient id="mbsk" x1="0" y1="0" x2="0" y2="1"><stop offset="0" stop-color="#DDD8CE" stop-opacity="1"/><stop offset="1" stop-color="#B3AC9F" stop-opacity="1"/></linearGradient><linearGradient id="mbtop" x1="0" y1="0" x2="0" y2="1"><stop offset="0" stop-color="#FAF9F6" stop-opacity="1"/><stop offset="1" stop-color="#EDEAE3" stop-opacity="1"/></linearGradient><linearGradient id="mbhous" x1="0" y1="0" x2="0" y2="1"><stop offset="0" stop-color="#DAD6CD" stop-opacity="1"/><stop offset="1" stop-color="#F4F2EC" stop-opacity="1"/></linearGradient><linearGradient id="mcsk" x1="0" y1="0" x2="0" y2="1"><stop offset="0" stop-color="#3D3C39" stop-opacity="1"/><stop offset="1" stop-color="#171615" stop-opacity="1"/></linearGradient><linearGradient id="mctop" x1="0" y1="0" x2="0" y2="1"><stop offset="0" stop-color="#383734" stop-opacity="1"/><stop offset="1" stop-color="#282725" stop-opacity="1"/></linearGradient><linearGradient id="mchous" x1="0" y1="0" x2="0" y2="1"><stop offset="0" stop-color="#121110" stop-opacity="1"/><stop offset="1" stop-color="#403F3C" stop-opacity="1"/></linearGradient><linearGradient id="mside" x1="0" y1="0" x2="1" y2="0"><stop offset="0" stop-color="#000000" stop-opacity="0.09"/><stop offset="0.16" stop-color="#000000" stop-opacity="0"/><stop offset="0.84" stop-color="#000000" stop-opacity="0"/><stop offset="1" stop-color="#000000" stop-opacity="0.09"/></linearGradient><linearGradient id="mdish" x1="0" y1="0" x2="0" y2="1"><stop offset="0" stop-color="#000000" stop-opacity="0.05"/><stop offset="0.24" stop-color="#000000" stop-opacity="0"/><stop offset="1" stop-color="#000000" stop-opacity="0"/></linearGradient><linearGradient id="mrim" x1="0" y1="0" x2="0" y2="1"><stop offset="0" stop-color="#FFFFFF" stop-opacity="1"/><stop offset="0.45" stop-color="#FFFFFF" stop-opacity="0"/></linearGradient><linearGradient id="mcrim" x1="0" y1="0" x2="0" y2="1"><stop offset="0" stop-color="#FFFFFF" stop-opacity="0.22"/><stop offset="0.45" stop-color="#FFFFFF" stop-opacity="0"/></linearGradient><radialGradient id="mglow" cx="0.5" cy="0.5" r="0.5"><stop offset="0" stop-color="#FF5A1F" stop-opacity="0.6"/><stop offset="0.45" stop-color="#FF5A1F" stop-opacity="0.22"/><stop offset="1" stop-color="#FF5A1F" stop-opacity="0"/></radialGradient><radialGradient id="mcglow" cx="0.5" cy="0.5" r="0.5"><stop offset="0" stop-color="#FF5A1F" stop-opacity="0.75"/><stop offset="1" stop-color="#FF5A1F" stop-opacity="0"/></radialGradient><radialGradient id="mledhi" cx="0.42" cy="0.36" r="0.5"><stop offset="0" stop-color="#FFFFFF" stop-opacity="0.6"/><stop offset="1" stop-color="#FFFFFF" stop-opacity="0"/></radialGradient><radialGradient id="mledeg" cx="0.5" cy="0.5" r="0.5"><stop offset="0.7" stop-color="#000000" stop-opacity="0"/><stop offset="1" stop-color="#000000" stop-opacity="0.1"/></radialGradient><filter id="mblur" x="-20%" y="-20%" width="140%" height="140%"><feGaussianBlur stdDeviation="18"/></filter><radialGradient id="wmglow" cx="0.5" cy="0.5" r="0.5"><stop offset="0" stop-color="#FF5A1F" stop-opacity="0.45"/><stop offset="0.4" stop-color="#FF5A1F" stop-opacity="0.16"/><stop offset="1" stop-color="#FF5A1F" stop-opacity="0"/></radialGradient></defs><g transform="translate(-11.72 0) scale(0.117188)"><rect x="100" y="100" width="824" height="824" rx="185" fill="url(#mcsk)"/><rect x="100" y="100" width="824" height="824" rx="185" fill="url(#mside)"/><rect x="101.5" y="101.5" width="821" height="821" rx="183.5" fill="none" stroke="#FFFFFF" stroke-opacity="0.06" stroke-width="3"/><rect x="180" y="186" width="664" height="636" rx="132" fill="#000000" fill-opacity="0.5" filter="url(#mblur)"/><rect x="172" y="146" width="680" height="652" rx="132" fill="url(#mctop)"/><rect x="172" y="146" width="680" height="652" rx="132" fill="url(#mdish)"/><rect x="173.5" y="147.5" width="677" height="649" rx="130.5" fill="none" stroke="url(#mcrim)" stroke-width="3"/><path transform="translate(264 706)" d="M15.55 0.00L1.58 -38.30L9.72 -38.30L20.16 -7.78L30.60 -38.30L38.81 -38.30L24.77 0.00ZM60.04 0.86Q54.57 0.86 50.47 -1.58Q46.36 -4.03 44.13 -8.57Q41.90 -13.10 41.90 -19.15Q41.90 -25.27 44.13 -29.74Q46.36 -34.20 50.47 -36.68Q54.57 -39.17 60.04 -39.17Q65.52 -39.17 69.62 -36.68Q73.72 -34.20 75.96 -29.74Q78.19 -25.27 78.19 -19.15Q78.19 -13.10 75.96 -8.57Q73.72 -4.03 69.62 -1.58Q65.52 0.86 60.04 0.86ZM60.04 -5.76Q64.94 -5.76 67.60 -9.32Q70.27 -12.89 70.27 -19.15Q70.27 -25.42 67.60 -28.98Q64.94 -32.54 60.04 -32.54Q55.22 -32.54 52.52 -28.98Q49.82 -25.42 49.82 -19.15Q49.82 -12.89 52.52 -9.32Q55.22 -5.76 60.04 -5.76ZM86.39 0.00L86.39 -38.30L94.02 -38.30L94.02 0.00ZM86.25 -43.85L86.25 -51.48L94.17 -51.48L94.17 -43.85ZM120.37 0.86Q114.90 0.86 110.80 -1.58Q106.69 -4.03 104.46 -8.57Q102.23 -13.10 102.23 -19.15Q102.23 -25.20 104.46 -29.70Q106.69 -34.20 110.80 -36.68Q114.90 -39.17 120.37 -39.17Q125.05 -39.17 128.69 -37.55Q132.32 -35.93 134.59 -32.83Q136.86 -29.74 137.51 -25.27L129.52 -24.84Q128.94 -28.58 126.49 -30.56Q124.04 -32.54 120.37 -32.54Q115.55 -32.54 112.85 -28.98Q110.15 -25.42 110.15 -19.15Q110.15 -12.89 112.85 -9.32Q115.55 -5.76 120.37 -5.76Q124.04 -5.76 126.49 -7.81Q128.94 -9.86 129.52 -14.04L137.51 -13.61Q136.86 -9.22 134.59 -5.98Q132.32 -2.74 128.69 -0.94Q125.05 0.86 120.37 0.86ZM160.69 0.86Q155.07 0.86 151.00 -1.58Q146.94 -4.03 144.74 -8.57Q142.54 -13.10 142.54 -19.15Q142.54 -25.20 144.74 -29.70Q146.94 -34.20 150.97 -36.68Q155.00 -39.17 160.47 -39.17Q165.66 -39.17 169.62 -36.76Q173.58 -34.34 175.77 -29.81Q177.97 -25.27 177.97 -18.86L177.97 -16.92L150.46 -16.92Q150.75 -11.30 153.45 -8.50Q156.15 -5.69 160.76 -5.69Q164.14 -5.69 166.38 -7.27Q168.61 -8.86 169.47 -11.52L177.39 -11.02Q175.88 -5.69 171.45 -2.41Q167.02 0.86 160.69 0.86ZM150.46 -22.68L169.90 -22.68Q169.54 -27.79 166.99 -30.24Q164.43 -32.69 160.47 -32.69Q156.37 -32.69 153.74 -30.13Q151.11 -27.58 150.46 -22.68Z" fill="#9D988E"/><circle cx="723" cy="275" r="124" fill="url(#mcglow)"/><circle cx="723" cy="275" r="37" fill="url(#mchous)"/><circle cx="723" cy="275" r="29" fill="#FF5A1F"/><circle cx="723" cy="275" r="29" fill="url(#mledeg)"/><circle cx="723" cy="275" r="29" fill="url(#mledhi)"/></g><path transform="translate(112.05 84.44) scale(0.72000)" d="M21.60 0.00L2.10 -53.40L15.60 -53.40L29.20 -12.90L42.80 -53.40L56.30 -53.40L36.80 0.00ZM82.30 1.20Q74.40 1.20 68.45 -2.25Q62.50 -5.70 59.25 -12.00Q56.00 -18.30 56.00 -26.70Q56.00 -35.20 59.25 -41.45Q62.50 -47.70 68.45 -51.15Q74.40 -54.60 82.30 -54.60Q90.20 -54.60 96.10 -51.15Q102.00 -47.70 105.25 -41.45Q108.50 -35.20 108.50 -26.70Q108.50 -18.30 105.25 -12.00Q102.00 -5.70 96.10 -2.25Q90.20 1.20 82.30 1.20ZM82.30 -9.20Q88.50 -9.20 91.85 -13.80Q95.20 -18.40 95.20 -26.70Q95.20 -34.90 91.85 -39.55Q88.50 -44.20 82.30 -44.20Q76.10 -44.20 72.70 -39.55Q69.30 -34.90 69.30 -26.70Q69.30 -18.40 72.70 -13.80Q76.10 -9.20 82.30 -9.20ZM114.90 0.00L114.90 -53.40L127.70 -53.40L127.70 0.00ZM114.70 -60.50L114.70 -71.90L128.00 -71.90L128.00 -60.50ZM160.50 1.20Q152.50 1.20 146.60 -2.25Q140.70 -5.70 137.45 -12.00Q134.20 -18.30 134.20 -26.70Q134.20 -35.10 137.45 -41.35Q140.70 -47.60 146.60 -51.10Q152.50 -54.60 160.50 -54.60Q167.30 -54.60 172.60 -52.20Q177.90 -49.80 181.25 -45.35Q184.60 -40.90 185.40 -34.50L172.20 -33.80Q171.40 -38.90 168.25 -41.55Q165.10 -44.20 160.50 -44.20Q154.30 -44.20 150.90 -39.55Q147.50 -34.90 147.50 -26.70Q147.50 -18.40 150.90 -13.80Q154.30 -9.20 160.50 -9.20Q165.20 -9.20 168.35 -11.90Q171.50 -14.60 172.20 -20.30L185.40 -19.70Q184.60 -13.30 181.30 -8.60Q178.00 -3.90 172.70 -1.35Q167.40 1.20 160.50 1.20ZM213.90 1.20Q205.90 1.20 200.00 -2.25Q194.10 -5.70 190.90 -12.00Q187.70 -18.30 187.70 -26.70Q187.70 -35.10 190.90 -41.35Q194.10 -47.60 199.95 -51.10Q205.80 -54.60 213.60 -54.60Q221.20 -54.60 226.95 -51.20Q232.70 -47.80 235.80 -41.40Q238.90 -35.00 238.90 -26.00L238.90 -23.10L201.00 -23.10Q201.40 -16.10 204.85 -12.55Q208.30 -9.00 214.00 -9.00Q218.30 -9.00 221.15 -10.95Q224.00 -12.90 225.10 -16.40L238.20 -15.60Q236.00 -7.80 229.55 -3.30Q223.10 1.20 213.90 1.20ZM201.00 -31.70L225.70 -31.70Q225.30 -38.20 222.00 -41.35Q218.70 -44.50 213.60 -44.50Q208.50 -44.50 205.15 -41.20Q201.80 -37.90 201.00 -31.70ZM245.40 0.00L245.40 -71.00L258.20 -71.00L258.20 -29.30L280.10 -53.40L295.90 -53.40L275.00 -31.20L296.60 0.00L282.20 0.00L266.60 -23.60L258.20 -14.70L258.20 0.00ZM321.40 1.20Q313.40 1.20 307.50 -2.25Q301.60 -5.70 298.40 -12.00Q295.20 -18.30 295.20 -26.70Q295.20 -35.10 298.40 -41.35Q301.60 -47.60 307.45 -51.10Q313.30 -54.60 321.10 -54.60Q328.70 -54.60 334.45 -51.20Q340.20 -47.80 343.30 -41.40Q346.40 -35.00 346.40 -26.00L346.40 -23.10L308.50 -23.10Q308.90 -16.10 312.35 -12.55Q315.80 -9.00 321.50 -9.00Q325.80 -9.00 328.65 -10.95Q331.50 -12.90 332.60 -16.40L345.70 -15.60Q343.50 -7.80 337.05 -3.30Q330.60 1.20 321.40 1.20ZM308.50 -31.70L333.20 -31.70Q332.80 -38.20 329.50 -41.35Q326.20 -44.50 321.10 -44.50Q316.00 -44.50 312.65 -41.20Q309.30 -37.90 308.50 -31.70ZM354.90 15.00L354.90 5.10L361.70 5.10Q364.30 5.10 365.55 4.30Q366.80 3.50 367.50 1.60L369.00 -2.10L365.30 -2.10L346.20 -53.40L359.50 -53.40L372.90 -14.10L385.70 -53.40L399.00 -53.40L378.10 5.60Q376.30 10.60 373.05 12.80Q369.80 15.00 364.00 15.00Z" fill="#F4F1EB"/><circle cx="415.53" cy="40.96" r="17.78" fill="url(#wmglow)"/><circle cx="415.53" cy="40.96" r="6.84" fill="#FF5A1F"/></svg>
